<mxfile host="app.diagrams.net" modified="2023-08-10T21:17:20.039Z" agent="Mozilla/5.0 (Windows NT 10.0; Win64; x64) AppleWebKit/537.36 (KHTML, like Gecko) Chrome/115.0.0.0 Safari/537.36 Edg/115.0.1901.200" etag="lgsZ1GY9HmayyqjjWh1V" version="21.6.7" type="github">
  <diagram name="Page-1" id="2YBvvXClWsGukQMizWep">
    <mxGraphModel dx="621" dy="734" grid="1" gridSize="10" guides="1" tooltips="1" connect="1" arrows="1" fold="1" page="1" pageScale="1" pageWidth="850" pageHeight="1100" math="0" shadow="0">
      <root>
        <mxCell id="0" />
        <mxCell id="1" parent="0" />
        <mxCell id="lIjqSCZZXQOpKgnv88Nd-1" value="Usuario" style="shape=umlActor;verticalLabelPosition=bottom;verticalAlign=top;html=1;outlineConnect=0;" vertex="1" parent="1">
          <mxGeometry x="50" y="70" width="30" height="60" as="geometry" />
        </mxCell>
        <mxCell id="lIjqSCZZXQOpKgnv88Nd-2" value="Interfaz" style="rounded=0;whiteSpace=wrap;html=1;" vertex="1" parent="1">
          <mxGeometry x="160" y="70" width="120" height="60" as="geometry" />
        </mxCell>
        <mxCell id="lIjqSCZZXQOpKgnv88Nd-3" value="Editor Core" style="rounded=0;whiteSpace=wrap;html=1;" vertex="1" parent="1">
          <mxGeometry x="320" y="70" width="120" height="60" as="geometry" />
        </mxCell>
        <mxCell id="lIjqSCZZXQOpKgnv88Nd-4" value="" style="endArrow=none;dashed=1;html=1;rounded=0;" edge="1" parent="1" source="lIjqSCZZXQOpKgnv88Nd-8">
          <mxGeometry width="50" height="50" relative="1" as="geometry">
            <mxPoint x="70" y="410" as="sourcePoint" />
            <mxPoint x="70" y="160" as="targetPoint" />
          </mxGeometry>
        </mxCell>
        <mxCell id="lIjqSCZZXQOpKgnv88Nd-5" value="" style="endArrow=none;dashed=1;html=1;rounded=0;entryX=0.5;entryY=1;entryDx=0;entryDy=0;" edge="1" parent="1" source="lIjqSCZZXQOpKgnv88Nd-11" target="lIjqSCZZXQOpKgnv88Nd-2">
          <mxGeometry width="50" height="50" relative="1" as="geometry">
            <mxPoint x="219.23" y="410" as="sourcePoint" />
            <mxPoint x="219.23" y="160" as="targetPoint" />
          </mxGeometry>
        </mxCell>
        <mxCell id="lIjqSCZZXQOpKgnv88Nd-6" value="" style="endArrow=none;dashed=1;html=1;rounded=0;entryX=0.5;entryY=1;entryDx=0;entryDy=0;" edge="1" parent="1" source="lIjqSCZZXQOpKgnv88Nd-14" target="lIjqSCZZXQOpKgnv88Nd-3">
          <mxGeometry width="50" height="50" relative="1" as="geometry">
            <mxPoint x="379.23" y="400" as="sourcePoint" />
            <mxPoint x="379.23" y="150" as="targetPoint" />
          </mxGeometry>
        </mxCell>
        <mxCell id="lIjqSCZZXQOpKgnv88Nd-9" value="" style="endArrow=none;dashed=1;html=1;rounded=0;" edge="1" parent="1" target="lIjqSCZZXQOpKgnv88Nd-8">
          <mxGeometry width="50" height="50" relative="1" as="geometry">
            <mxPoint x="70" y="410" as="sourcePoint" />
            <mxPoint x="70" y="160" as="targetPoint" />
          </mxGeometry>
        </mxCell>
        <mxCell id="lIjqSCZZXQOpKgnv88Nd-8" value="" style="rounded=0;whiteSpace=wrap;html=1;rotation=90;" vertex="1" parent="1">
          <mxGeometry x="35" y="310" width="70" height="20" as="geometry" />
        </mxCell>
        <mxCell id="lIjqSCZZXQOpKgnv88Nd-10" value="" style="rounded=0;whiteSpace=wrap;html=1;rotation=90;" vertex="1" parent="1">
          <mxGeometry x="35" y="210" width="70" height="20" as="geometry" />
        </mxCell>
        <mxCell id="lIjqSCZZXQOpKgnv88Nd-13" value="" style="endArrow=none;dashed=1;html=1;rounded=0;entryX=1;entryY=0.5;entryDx=0;entryDy=0;" edge="1" parent="1" target="lIjqSCZZXQOpKgnv88Nd-11">
          <mxGeometry width="50" height="50" relative="1" as="geometry">
            <mxPoint x="219.23" y="410" as="sourcePoint" />
            <mxPoint x="220" y="130" as="targetPoint" />
          </mxGeometry>
        </mxCell>
        <mxCell id="lIjqSCZZXQOpKgnv88Nd-11" value="" style="rounded=0;whiteSpace=wrap;html=1;rotation=90;" vertex="1" parent="1">
          <mxGeometry x="185" y="190" width="70" height="20" as="geometry" />
        </mxCell>
        <mxCell id="lIjqSCZZXQOpKgnv88Nd-15" value="" style="endArrow=none;dashed=1;html=1;rounded=0;" edge="1" parent="1" target="lIjqSCZZXQOpKgnv88Nd-14">
          <mxGeometry width="50" height="50" relative="1" as="geometry">
            <mxPoint x="379.23" y="400" as="sourcePoint" />
            <mxPoint x="380" y="130" as="targetPoint" />
          </mxGeometry>
        </mxCell>
        <mxCell id="lIjqSCZZXQOpKgnv88Nd-14" value="" style="rounded=0;whiteSpace=wrap;html=1;rotation=90;" vertex="1" parent="1">
          <mxGeometry x="345" y="210" width="70" height="20" as="geometry" />
        </mxCell>
        <mxCell id="lIjqSCZZXQOpKgnv88Nd-16" value="" style="endArrow=classic;html=1;rounded=0;exitX=0.167;exitY=-0.152;exitDx=0;exitDy=0;exitPerimeter=0;entryX=0.574;entryY=1.136;entryDx=0;entryDy=0;entryPerimeter=0;" edge="1" parent="1" source="lIjqSCZZXQOpKgnv88Nd-10" target="lIjqSCZZXQOpKgnv88Nd-11">
          <mxGeometry width="50" height="50" relative="1" as="geometry">
            <mxPoint x="170" y="250" as="sourcePoint" />
            <mxPoint x="220" y="200" as="targetPoint" />
          </mxGeometry>
        </mxCell>
        <mxCell id="lIjqSCZZXQOpKgnv88Nd-17" value="Nova Atividade" style="text;html=1;align=center;verticalAlign=middle;resizable=0;points=[];autosize=1;strokeColor=none;fillColor=none;" vertex="1" parent="1">
          <mxGeometry x="100" y="170" width="100" height="30" as="geometry" />
        </mxCell>
        <mxCell id="lIjqSCZZXQOpKgnv88Nd-18" value="" style="endArrow=classic;html=1;rounded=0;exitX=0.167;exitY=-0.152;exitDx=0;exitDy=0;exitPerimeter=0;entryX=0.5;entryY=1;entryDx=0;entryDy=0;" edge="1" parent="1" target="lIjqSCZZXQOpKgnv88Nd-14">
          <mxGeometry width="50" height="50" relative="1" as="geometry">
            <mxPoint x="230" y="209.5" as="sourcePoint" />
            <mxPoint x="354" y="217.5" as="targetPoint" />
          </mxGeometry>
        </mxCell>
        <mxCell id="lIjqSCZZXQOpKgnv88Nd-19" value="Criar Nova Atividade" style="text;html=1;align=center;verticalAlign=middle;resizable=0;points=[];autosize=1;strokeColor=none;fillColor=none;" vertex="1" parent="1">
          <mxGeometry x="232" y="182.5" width="130" height="30" as="geometry" />
        </mxCell>
        <mxCell id="lIjqSCZZXQOpKgnv88Nd-20" value="" style="endArrow=none;dashed=1;html=1;rounded=0;entryX=0.5;entryY=1;entryDx=0;entryDy=0;" edge="1" source="lIjqSCZZXQOpKgnv88Nd-21" target="lIjqSCZZXQOpKgnv88Nd-22" parent="1">
          <mxGeometry width="50" height="50" relative="1" as="geometry">
            <mxPoint x="509.23" y="470" as="sourcePoint" />
            <mxPoint x="509.23" y="220" as="targetPoint" />
          </mxGeometry>
        </mxCell>
        <mxCell id="lIjqSCZZXQOpKgnv88Nd-21" value="" style="rounded=0;whiteSpace=wrap;html=1;rotation=90;" vertex="1" parent="1">
          <mxGeometry x="475" y="280" width="70" height="20" as="geometry" />
        </mxCell>
        <mxCell id="lIjqSCZZXQOpKgnv88Nd-22" value="Editor Core" style="rounded=0;whiteSpace=wrap;html=1;" vertex="1" parent="1">
          <mxGeometry x="450" y="140" width="120" height="60" as="geometry" />
        </mxCell>
        <mxCell id="lIjqSCZZXQOpKgnv88Nd-23" value="" style="endArrow=classic;html=1;rounded=0;exitX=0.167;exitY=-0.152;exitDx=0;exitDy=0;exitPerimeter=0;entryX=0.5;entryY=1;entryDx=0;entryDy=0;" edge="1" parent="1">
          <mxGeometry width="50" height="50" relative="1" as="geometry">
            <mxPoint x="240" y="219.5" as="sourcePoint" />
            <mxPoint x="380" y="230" as="targetPoint" />
          </mxGeometry>
        </mxCell>
        <mxCell id="lIjqSCZZXQOpKgnv88Nd-24" value="Criar Nova Atividade" style="text;html=1;align=center;verticalAlign=middle;resizable=0;points=[];autosize=1;strokeColor=none;fillColor=none;" vertex="1" parent="1">
          <mxGeometry x="242" y="192.5" width="130" height="30" as="geometry" />
        </mxCell>
      </root>
    </mxGraphModel>
  </diagram>
</mxfile>
